<svg width="125" height="67" viewBox="0 0 125 67" fill="none" xmlns="http://www.w3.org/2000/svg">
<circle cx="33.5" cy="33.5" r="33.5" fill="#F7DF1E"/>
<path d="M18.176 43.072C16.232 43.072 14.384 42.328 14.384 39.616V36.352C14.384 35.224 13.952 34.768 13.016 34.768H11.624V32.032H13.016C13.952 32.032 14.384 31.576 14.384 30.448V26.128C14.384 23.416 16.232 22.672 18.176 22.672H20.216V25.408H18.464C17.792 25.408 17.648 25.696 17.648 26.224V30.856C17.648 32.584 16.712 33.184 15.416 33.4C16.712 33.616 17.648 34.216 17.648 35.944V39.52C17.648 40.048 17.792 40.336 18.464 40.336H20.216V43.072H18.176ZM26.2895 40.216C23.6015 40.216 22.0415 38.824 21.2495 37.144L23.9855 35.488C24.5135 36.424 24.9935 37.216 26.1455 37.216C27.2495 37.216 27.9455 36.784 27.9455 35.104V23.68H31.3055V35.152C31.3055 38.632 29.2655 40.216 26.2895 40.216ZM39.2518 40.216C36.1318 40.216 34.1158 38.728 33.1318 36.784L35.8678 35.2C36.5878 36.376 37.5238 37.24 39.1797 37.24C40.5718 37.24 41.4598 36.544 41.4598 35.584C41.4598 34.432 40.5478 34.024 39.0117 33.352L38.1718 32.992C35.7478 31.96 34.1398 30.664 34.1398 27.928C34.1398 25.408 36.0598 23.488 39.0598 23.488C41.1958 23.488 42.7318 24.232 43.8358 26.176L41.2198 27.856C40.6438 26.824 40.0198 26.416 39.0598 26.416C38.0758 26.416 37.4518 27.04 37.4518 27.856C37.4518 28.864 38.0758 29.272 39.5158 29.896L40.3558 30.256C43.2118 31.48 44.8198 32.728 44.8198 35.536C44.8198 38.56 42.4438 40.216 39.2518 40.216ZM46.22 43.072V40.336H47.972C48.644 40.336 48.788 40.048 48.788 39.52V35.944C48.788 34.216 49.724 33.616 51.02 33.4C49.724 33.184 48.788 32.584 48.788 30.856V26.224C48.788 25.696 48.644 25.408 47.972 25.408H46.22V22.672H48.26C50.204 22.672 52.052 23.416 52.052 26.128V30.448C52.052 31.576 52.484 32.032 53.42 32.032H54.812V34.768H53.42C52.484 34.768 52.052 35.224 52.052 36.352V39.616C52.052 42.328 50.204 43.072 48.26 43.072H46.22Z" fill="black"/>
<path d="M82.424 42.288C79.096 42.288 76.248 39.344 76.248 35.152C76.248 30.96 79.064 28.08 82.36 28.08C84.536 28.08 85.752 28.944 86.616 30.288V18.896H90.936V42H86.616L86.712 40.016C85.944 41.456 84.504 42.288 82.424 42.288ZM83.672 38.512C85.528 38.512 86.744 37.296 86.744 35.152C86.744 33.136 85.528 31.888 83.672 31.888C81.848 31.888 80.696 33.136 80.696 35.152C80.696 37.296 81.848 38.512 83.672 38.512ZM98.257 36.496C98.673 37.904 99.825 38.704 101.777 38.704C103.345 38.704 104.529 38.096 105.201 37.616L107.665 40.272C106.353 41.424 104.689 42.288 101.841 42.288C96.977 42.288 93.841 39.344 93.841 35.152C93.841 31.024 97.137 28.08 101.361 28.08C106.257 28.08 108.913 31.728 108.593 36.496H98.257ZM98.193 34H104.241C104.049 32.496 103.089 31.6 101.393 31.6C99.697 31.6 98.545 32.368 98.193 34ZM116.899 42.288L109.507 28.368H114.275L116.195 32.432C116.835 33.808 117.315 36.048 117.315 36.048C117.315 36.048 117.763 33.808 118.371 32.432L120.227 28.368H124.611L117.315 42.288H116.899Z" fill="black"/>
</svg>
